<?xml version="1.0" encoding="UTF-8"?>
<svg width="75px" height="44px" viewBox="0 0 75 44" version="1.1" xmlns="http://www.w3.org/2000/svg" xmlns:xlink="http://www.w3.org/1999/xlink">
    <title>Banners/TJX/Color/Global Header-Desktop</title>
    <g id="Banners/TJX/Color/Global-Header-Desktop" stroke="none" stroke-width="1" fill="none" fill-rule="evenodd">
        <polygon id="Path" fill="#9C1C26" fill-rule="nonzero" points="29.6989721 9.0237599 19.3465492 9.0237599 19.2731278 43.8716132 10.2973568 43.8716132 10.2973568 9.0971238 -1.58095759e-13 9.0237599 -1.58095759e-13 0 29.6989721 0"></polygon>
        <polygon id="Path" fill="#9C1C26" fill-rule="nonzero" points="55.5066079 7.50145894 60.7562408 -7.10542736e-15 70.4111601 -7.10542736e-15 60.7562408 15.7182159 70.7599119 31.344727 60.9397944 31.344727 55.4698972 23.4397666 41.8502203 43.7248854 32.1218796 43.7248854 50.3671072 15.7548979 40.30837 -7.10542736e-15 50.2753304 -7.10542736e-15"></polygon>
        <path d="M39.4273128,27.0896207 C38.7298091,33.3622343 34.5814978,39.1213005 28.928047,41.8907878 C26.3399413,43.1196332 23.4948605,43.9266361 20.3377386,43.8899541 L20.3377386,35.1596499 C25.0734214,35.0129221 28.9096916,31.9683201 30.3414097,27.8599416 C30.5800294,27.4747812 30.6167401,26.851188 30.7268722,26.3926636 L30.8002937,0 L39.4640235,0 L39.4273128,27.0896207 Z" id="Path" fill="#9C1C26" fill-rule="nonzero"></path>
        <path d="M75,2.43934973 C75,1.10045852 73.8986784,-1.33226763e-14 72.5587372,-1.33226763e-14 C71.2004405,-1.33226763e-14 70.0991189,1.10045852 70.1174743,2.43934973 C70.1174743,3.79658191 71.2187959,4.87869946 72.5587372,4.87869946 C73.8986784,4.87869946 75,3.79658191 75,2.43934973 M74.7246696,2.43934973 C74.7246696,3.63151313 73.7518355,4.60358483 72.5587372,4.60358483 C71.3656388,4.60358483 70.3928047,3.63151313 70.3928047,2.43934973 C70.3928047,1.24718633 71.3656388,0.275114631 72.5403818,0.275114631 C73.7518355,0.275114631 74.7246696,1.24718633 74.7246696,2.43934973 M71.6409692,3.72321801 L71.989721,3.72321801 L71.989721,2.56773656 L72.8707783,2.56773656 C73.4397944,2.56773656 73.2745962,3.06294289 73.3296623,3.37473947 L73.3847283,3.72321801 L73.7885463,3.72321801 C73.6417034,3.48478533 73.6967695,3.4297624 73.6600587,3.08128387 C73.623348,2.62275948 73.6049927,2.56773656 73.3296623,2.40266778 C73.5866373,2.20091705 73.6967695,2.07253022 73.6784141,1.72405169 C73.6417034,1.1187995 73.2378855,1.02709462 72.8157122,1.02709462 L71.6409692,1.02709462 L71.6409692,3.72321801 Z M72.8524229,1.3388912 C73.0726872,1.3388912 73.4030837,1.39391413 73.3480176,1.85243852 C73.3113069,2.20091705 73.0910426,2.25593997 72.8524229,2.25593997 L71.989721,2.25593997 L71.989721,1.32055023 L72.8524229,1.3388912 L72.8524229,1.3388912 Z" id="Shape" fill="#9C1C26" fill-rule="nonzero"></path>
    </g>
</svg>